<?xml version="1.0" encoding="utf-8"?>
<!-- Generator: Adobe Illustrator 27.2.0, SVG Export Plug-In . SVG Version: 6.00 Build 0)  -->
<svg version="1.1" id="Capa_1" xmlns="http://www.w3.org/2000/svg" xmlns:xlink="http://www.w3.org/1999/xlink" x="0px" y="0px"
	 viewBox="0 0 595.3 841.9" style="enable-background:new 0 0 595.3 841.9;" xml:space="preserve">
<style type="text/css">
	.st0{fill:url(#SVGID_1_);}
	.st1{fill:url(#SVGID_00000154423216811891028250000015670389136477548675_);}
	.st2{fill:url(#SVGID_00000089559892100407244750000011542591102938355862_);}
	.st3{fill:url(#SVGID_00000098928524205637139600000007105168515927267740_);}
	.st4{fill:url(#SVGID_00000000901185977771513560000008567129150573761980_);}
	.st5{fill:url(#SVGID_00000168820441832586441880000004463896603643309725_);}
	.st6{fill:url(#SVGID_00000176755228276910006200000015458489069750060981_);}
	.st7{fill:url(#SVGID_00000102538344060603189230000003494127601729518521_);}
	.st8{fill:url(#SVGID_00000180354644848458179070000017218165247150451339_);}
	.st9{fill:url(#SVGID_00000127748783296509450950000001405526285171175871_);}
	.st10{fill:url(#SVGID_00000155828776123909611790000010290606602006451091_);}
	.st11{fill:url(#SVGID_00000054952472045206692140000002284585252606692795_);}
	.st12{fill:url(#SVGID_00000063610180398491528670000009442793348228620221_);}
	.st13{fill:url(#SVGID_00000174567780074471194040000004909554983584384162_);}
	.st14{fill:url(#SVGID_00000129892794022304802470000014370043625379611578_);}
	.st15{fill:url(#SVGID_00000108290473138440397930000013573338049842904997_);}
	.st16{fill:url(#SVGID_00000019678737792278413530000011451907037213078156_);}
	.st17{fill:url(#SVGID_00000145748765016218712650000007595371560042723722_);}
</style>
<g>
	<g>
		<g>
			
				<radialGradient id="SVGID_1_" cx="248.885" cy="469.9211" r="130.6062" gradientTransform="matrix(1 0 0 -1 0 842.11)" gradientUnits="userSpaceOnUse">
				<stop  offset="2.237672e-07" style="stop-color:#F2F2F2"/>
				<stop  offset="0.4516" style="stop-color:#F0F0F0"/>
				<stop  offset="0.6142" style="stop-color:#E9E8E8"/>
				<stop  offset="0.7302" style="stop-color:#DCDBDB"/>
				<stop  offset="0.8239" style="stop-color:#CBC9C9"/>
				<stop  offset="0.9042" style="stop-color:#B5B4B3"/>
				<stop  offset="0.974" style="stop-color:#9A9A9A"/>
				<stop  offset="1" style="stop-color:#8E8F8F"/>
			</radialGradient>
			<path class="st0" d="M190.7,298.7c0.9,0.9,2.1,1.6,2.8,2.7c5.5,7.8,11,15.6,16.5,23.4c-13.7,25.5-27.7,51-41.2,76.8
				c-8.1,15.4-17.1,30.5-21.7,47.6c-1.2,4.5-2.4,9.3-1.9,13.8c1.2,10.2,9.6,13.2,18.8,11.4c10.4-2,18.9-7.9,27.6-13.5
				c0.4-0.3,0.9-0.6,1.4-0.9c0.3-0.3,0.6-0.6,0.9-0.8c5-3.7,10-7.5,14.9-11.2l-0.1,0.1c1.3-1,2.5-2.1,3.8-3.1l-0.1,0.1
				c2.6-2.2,5.1-4.4,7.6-6.6l0,0c4.5-4,8.9-8,13.4-11.9l0.3,0.1l0.2-0.2c9.8-9.8,19.5-19.5,29.3-29.3c8-9.6,16.3-19,24-28.8
				c19.9-25.4,35-53.7,48.6-82.8c9.1-19.5,23.8-33,43-41.9c0.3-0.1,0.7-0.1,2-0.3c-5,13.6-9.6,26.9-14.8,39.9
				c-13.7,34.1-31.4,66.1-52.7,95.9c-7.8,10.9-16.2,21.5-25.2,31.5c-11.2,12.5-22.7,24.7-34.9,36.2c-10.1,9.6-21.1,18.4-32.4,26.7
				c-9.8,7.2-20.2,13.5-30.8,19.4c-12.5,7-26.2,9.4-40.4,8.1c-7.2-0.7-13.7-3.9-19.2-8.7c-11.5-10.1-15.3-22.7-13.6-37.9
				c1.3-11.2,5.6-21.1,9.7-31.2c1.6-3.8,3.2-7.5,4.9-11.2c1.5-3,3-6,4.5-9l-0.1,0c0.5-1,1.1-2,1.6-3.1c2-3.8,3.9-7.5,5.9-11.3
				c0.5-1.2,1-2.4,1.5-3.7h0c0.3-0.3,0.7-0.5,1-0.8c5.7-10.6,11.6-21.2,17.2-31.9c4.8-9.2,9.4-18.5,14.1-27.8
				c1.7-3.2,3.4-6.5,5.1-9.8c1.5-3,3-6.1,4.4-9.2c0.2-0.1,0.5-0.2,0.7-0.2c0.2-0.2,0.4-0.4,0.6-0.6
				C189.2,302.7,190,300.7,190.7,298.7z"/>
			
				<radialGradient id="SVGID_00000114754660896404630250000018198384953728429472_" cx="399.8725" cy="457.1365" r="102.2041" gradientTransform="matrix(1 0 0 -1 0 842.11)" gradientUnits="userSpaceOnUse">
				<stop  offset="2.237672e-07" style="stop-color:#F2F2F2"/>
				<stop  offset="0.4516" style="stop-color:#F0F0F0"/>
				<stop  offset="0.6142" style="stop-color:#E9E8E8"/>
				<stop  offset="0.7302" style="stop-color:#DCDBDB"/>
				<stop  offset="0.8239" style="stop-color:#CBC9C9"/>
				<stop  offset="0.9042" style="stop-color:#B5B4B3"/>
				<stop  offset="0.974" style="stop-color:#9A9A9A"/>
				<stop  offset="1" style="stop-color:#8E8F8F"/>
			</radialGradient>
			<path style="fill:url(#SVGID_00000114754660896404630250000018198384953728429472_);" d="M470.9,411.1c3.2,8.3,6.6,16.6,9.6,25
				c3.2,8.9,5.4,18.1,4.6,27.7c-1.5,18.1-12,31.8-31.4,36.5c-12.8,3.1-24.8,0.5-36.6-4.5c-13.9-5.9-26.1-14.6-38.2-23.4
				c-21.2-15.6-40.4-33.5-59.6-51.5c-1.8-1.7-3.4-3.6-4.9-5.2c5.8-7.6,11.4-15,17.3-22.7c3.6,3.7,7.3,7.5,11.1,11.3
				c5.8,5.3,11.5,10.7,17.3,16l0.2,0.2l0.3-0.1c0.8,0.9,1.7,1.8,2.5,2.6c4.9,4.1,9.8,8.2,14.6,12.3l0.1,0c2.2,2,4.3,4.2,6.7,6
				c1.9,1.5,4.2,2.7,6.3,4c0.2,0.1,0.5,0.1,0.7,0.1c4.1,3.5,8.1,7,12.2,10.5c2.2,1.5,4.3,3,6.5,4.6l0,0c0.3,0.2,0.6,0.3,0.9,0.5
				c8,5.9,16.5,11.1,26.3,13.2c11.1,2.4,21.9-3.7,19.6-17.5c-2.4-14.3-8.6-27.1-15.1-39.7c-14.6-28.5-29.7-56.8-44.6-85.2
				c-4.7-8.9-9.2-17.9-14.2-26.6c-1.6-2.8-2.4-4.5-0.7-7.8c3.5-6.7,6.1-13.8,9-20.8c1.1-2.8,2.1-5.6,3.2-8.4c1.5,2.2,3,4.5,4.5,6.8
				c1.5,2.7,3,5.4,4.4,8.2c2.8,4.9,5.6,9.8,8.3,14.7c0,0.2,0.1,0.5,0.2,0.8c0.2,0.2,0.4,0.4,0.6,0.7l0,0c0.5,1,1,2,1.5,3
				c1.2,2.4,2.3,4.8,3.6,7.1c5.2,9.9,10.4,19.7,15.6,29.6c7,13.2,14,26.5,21,39.7c3.6,7,7.1,14,10.7,21.1
				C466.9,403.7,468.9,407.4,470.9,411.1z"/>
			
				<radialGradient id="SVGID_00000132805248988631386750000012611392475434282659_" cx="300.68" cy="668.9608" r="74.7441" gradientTransform="matrix(1 0 0 -1 0 842.11)" gradientUnits="userSpaceOnUse">
				<stop  offset="2.237672e-07" style="stop-color:#F2F2F2"/>
				<stop  offset="0.4516" style="stop-color:#F0F0F0"/>
				<stop  offset="0.6142" style="stop-color:#E9E8E8"/>
				<stop  offset="0.7302" style="stop-color:#DCDBDB"/>
				<stop  offset="0.8239" style="stop-color:#CBC9C9"/>
				<stop  offset="0.9042" style="stop-color:#B5B4B3"/>
				<stop  offset="0.974" style="stop-color:#9A9A9A"/>
				<stop  offset="1" style="stop-color:#8E8F8F"/>
			</radialGradient>
			<path style="fill:url(#SVGID_00000132805248988631386750000012611392475434282659_);" d="M403.8,169.4
				c-8.4,4.4-16.4,8.5-24.7,12.9c-10.7-7.5-23.1-8.3-36.2-6.7c-19,2.4-36.9,9.5-55.3,14c-16.5,4-33,7.7-50.1,6.3
				c-14.1-1.2-27.7-5.1-40-14.9c3.8,0,6.6,0,9.4,0c8-0.1,15.8-1.4,23.5-3.6c10.2-2.9,20.7-5,31-7.6c10.6-2.7,21.1-5.5,31.7-8.3
				c7.1-1.9,14.2-3.9,21.5-5.6c9.2-2.1,18.3-4.7,27.6-5.4c9.9-0.8,20-0.9,30,1.8C383.9,155.5,394.5,160.5,403.8,169.4z"/>
			
				<radialGradient id="SVGID_00000096776431560559396310000017749103188091966889_" cx="241.5405" cy="556.553" r="59.5654" gradientTransform="matrix(1 0 0 -1 0 842.11)" gradientUnits="userSpaceOnUse">
				<stop  offset="2.237672e-07" style="stop-color:#F2F2F2"/>
				<stop  offset="0.4516" style="stop-color:#F0F0F0"/>
				<stop  offset="0.6142" style="stop-color:#E9E8E8"/>
				<stop  offset="0.7302" style="stop-color:#DCDBDB"/>
				<stop  offset="0.8239" style="stop-color:#CBC9C9"/>
				<stop  offset="0.9042" style="stop-color:#B5B4B3"/>
				<stop  offset="0.974" style="stop-color:#9A9A9A"/>
				<stop  offset="1" style="stop-color:#8E8F8F"/>
			</radialGradient>
			<path style="fill:url(#SVGID_00000096776431560559396310000017749103188091966889_);" d="M285.6,337.9
				c-6.1,6.1-12.7,12.6-19.5,19.4c-4.2-4.5-8.4-8.6-12.2-13.1c-10.9-13.1-21.8-26.3-32.4-39.7c-9.4-11.9-17.1-24.8-21.4-39.5
				c-4.2-14.8-4.1-29.1,4.7-42.5c0.4-0.6,0.8-1.2,1.2-1.8c3.8-6.6,8.9-8.9,16.1-5.2c2.5,1.2,5.4,1.6,8.2,2.2c2.6,0.6,5.2,1,7,1.3
				c-3.1,7.1-7,13.8-9,21.1c-3,10.9-0.1,21.5,4.7,31.5c5.6,11.6,13.4,21.6,21.7,31.3C264.8,314.7,275.1,326.1,285.6,337.9z"/>
			
				<radialGradient id="SVGID_00000055670420076714838600000009280120589409032895_" cx="384.7076" cy="623.2886" r="48.5467" gradientTransform="matrix(1 0 0 -1 0 842.11)" gradientUnits="userSpaceOnUse">
				<stop  offset="2.237672e-07" style="stop-color:#F2F2F2"/>
				<stop  offset="0.4516" style="stop-color:#F0F0F0"/>
				<stop  offset="0.6142" style="stop-color:#E9E8E8"/>
				<stop  offset="0.7302" style="stop-color:#DCDBDB"/>
				<stop  offset="0.8239" style="stop-color:#CBC9C9"/>
				<stop  offset="0.9042" style="stop-color:#B5B4B3"/>
				<stop  offset="0.974" style="stop-color:#9A9A9A"/>
				<stop  offset="1" style="stop-color:#8E8F8F"/>
			</radialGradient>
			<path style="fill:url(#SVGID_00000055670420076714838600000009280120589409032895_);" d="M423.1,242.9c2.9-4.2,4.7-8.6,3.4-13.6
				c-1.3-5.1-5.2-7.9-10-9.3c-6.6-2-13.3-1.7-20.1-1c-19.7,2.1-37.2,9.4-53,21.1c-5.9,4.4-11.4,9.5-17.2,14.4
				c3.1-4.5,5.8-9.4,9.3-13.6c6-7.2,11.9-14.7,19-20.6c9.4-7.9,19.8-14.6,30-21.5c6.9-4.7,14-9.1,21.5-12.9
				c11.1-5.7,25.4-2.7,32.3,7.4c5.2,7.7,6.6,16.7,3.7,26.1C438.6,229.7,432.6,237.6,423.1,242.9z M414.1,199.4c0-4-1.6-5.7-4.2-5.7
				c-2.7,0-5,2.3-4.6,4.9c0.3,2.2,1.4,4.2,4.3,4C412.4,202.6,414,201.1,414.1,199.4z"/>
			
				<radialGradient id="SVGID_00000163031686469264473510000002578801099925834120_" cx="286.907" cy="593.5799" r="35.9326" gradientTransform="matrix(1 0 0 -1 0 842.11)" gradientUnits="userSpaceOnUse">
				<stop  offset="2.237672e-07" style="stop-color:#F2F2F2"/>
				<stop  offset="0.4516" style="stop-color:#F0F0F0"/>
				<stop  offset="0.6142" style="stop-color:#E9E8E8"/>
				<stop  offset="0.7302" style="stop-color:#DCDBDB"/>
				<stop  offset="0.8239" style="stop-color:#CBC9C9"/>
				<stop  offset="0.9042" style="stop-color:#B5B4B3"/>
				<stop  offset="0.974" style="stop-color:#9A9A9A"/>
				<stop  offset="1" style="stop-color:#8E8F8F"/>
			</radialGradient>
			<path style="fill:url(#SVGID_00000163031686469264473510000002578801099925834120_);" d="M323.5,213.5c-8,4.5-15.7,8.7-23.2,13.3
				c-12.8,7.8-23.7,17.4-30.3,31.2c-3.1,6.5-5.7,18-5.8,25.8c-7.1-8.6-12.2-17.6-13.5-28.6c-1.5-11.5,2.4-21.2,9.9-29.6
				c1.7-1.9,3.4-3.6,5.3-5.3c2-1.8,4.2-2.2,7.2-2.1c6.5,0.2,13.1-1,19.7-1.5c2.6-0.2,5.2,0,7.8-0.3c7.2-0.9,14.4-2.1,21.5-3.1
				C322.4,213.2,322.7,213.4,323.5,213.5z"/>
			
				<radialGradient id="SVGID_00000081638575100564078470000003082786500180703123_" cx="347.265" cy="646.8812" r="13.4857" gradientTransform="matrix(1 0 0 -1 0 842.11)" gradientUnits="userSpaceOnUse">
				<stop  offset="2.237672e-07" style="stop-color:#F2F2F2"/>
				<stop  offset="0.4516" style="stop-color:#F0F0F0"/>
				<stop  offset="0.6142" style="stop-color:#E9E8E8"/>
				<stop  offset="0.7302" style="stop-color:#DCDBDB"/>
				<stop  offset="0.8239" style="stop-color:#CBC9C9"/>
				<stop  offset="0.9042" style="stop-color:#B5B4B3"/>
				<stop  offset="0.974" style="stop-color:#9A9A9A"/>
				<stop  offset="1" style="stop-color:#8E8F8F"/>
			</radialGradient>
			<path style="fill:url(#SVGID_00000081638575100564078470000003082786500180703123_);" d="M330.5,188.2
				c12.4-3.9,29.7-2.4,33.5,3.8c-5.3,4.3-10.7,8.6-15.3,12.3C342.5,198.9,336.5,193.5,330.5,188.2z"/>
		</g>
	</g>
	<g>
		<g>
			
				<radialGradient id="SVGID_00000163072121551016866090000010652235006531214473_" cx="299.06" cy="565.42" r="31.0612" gradientTransform="matrix(1 0 0 -1 0 842.11)" gradientUnits="userSpaceOnUse">
				<stop  offset="0" style="stop-color:#69ADDA"/>
				<stop  offset="0.2592" style="stop-color:#66AAD7"/>
				<stop  offset="0.4515" style="stop-color:#61A2CD"/>
				<stop  offset="0.6222" style="stop-color:#5593BC"/>
				<stop  offset="0.7804" style="stop-color:#497FA5"/>
				<stop  offset="0.9286" style="stop-color:#3B698B"/>
				<stop  offset="1" style="stop-color:#355C7D"/>
			</radialGradient>
			<path style="fill:url(#SVGID_00000163072121551016866090000010652235006531214473_);" d="M283.6,300.8c1.4,4,2.9,8.1,4.3,12.1
				c0.6,1.4,1.2,2.9,2,4.6c1.5-0.7,2.9-1.1,3.9-1.8c3.4-2.5,6.7-5.2,10.1-7.9c2.6-2,3.3-5.4,1.9-8.4c-0.9-3.5-1.8-7-2.8-10.5
				c-0.3-2-0.6-4-1-6c-0.6-16.7,4.8-31.8,13.2-47c-1.6,1-2.4,1.4-3,1.9c-9.8,8.1-18,17.5-23.8,29c-3.2,6.5-5.4,13.3-5.7,20.6
				c0,0.5,0,1.1,0,1.6l0,0c0,0.5,0,0.9,0,1.4C283.1,293.8,283.4,297.3,283.6,300.8z"/>
			
				<radialGradient id="SVGID_00000002385994036527373910000007884252235950963084_" cx="412.3141" cy="541.2242" r="9.352963e-03" gradientTransform="matrix(1 0 0 -1 0 842.11)" gradientUnits="userSpaceOnUse">
				<stop  offset="0" style="stop-color:#69ADDA"/>
				<stop  offset="0.2592" style="stop-color:#66AAD7"/>
				<stop  offset="0.4515" style="stop-color:#61A2CD"/>
				<stop  offset="0.6222" style="stop-color:#5593BC"/>
				<stop  offset="0.7804" style="stop-color:#497FA5"/>
				<stop  offset="0.9286" style="stop-color:#3B698B"/>
				<stop  offset="1" style="stop-color:#355C7D"/>
			</radialGradient>
			<path style="fill:url(#SVGID_00000002385994036527373910000007884252235950963084_);" d="M412.3,300.9L412.3,300.9L412.3,300.9
				C412.3,300.9,412.3,300.9,412.3,300.9z"/>
			
				<radialGradient id="SVGID_00000169537664410133399390000013649720085688392879_" cx="159.3241" cy="527.13" r="72.9222" gradientTransform="matrix(1 0 0 -1 0 842.11)" gradientUnits="userSpaceOnUse">
				<stop  offset="0" style="stop-color:#69ADDA"/>
				<stop  offset="0.2592" style="stop-color:#66AAD7"/>
				<stop  offset="0.4515" style="stop-color:#61A2CD"/>
				<stop  offset="0.6222" style="stop-color:#5593BC"/>
				<stop  offset="0.7804" style="stop-color:#497FA5"/>
				<stop  offset="0.9286" style="stop-color:#3B698B"/>
				<stop  offset="1" style="stop-color:#355C7D"/>
			</radialGradient>
			<path style="fill:url(#SVGID_00000169537664410133399390000013649720085688392879_);" d="M163.1,353.6
				c4.8-9.2,9.4-18.5,14.1-27.8c-0.6-2.2-1.2-4.4-1.9-6.5c0.7,2.1,1.3,4.3,1.9,6.5c1.7-3.2,3.4-6.5,5.1-9.8c1.5-3,3-6.1,4.4-9.2
				c0.2-0.1,0.5-0.2,0.7-0.2c0.2-0.2,0.4-0.4,0.6-0.6c0.8-2,1.6-4,2.4-5.9c-1.8-3.2-3.6-6.5-5.4-9.8c-0.2-0.5-0.4-1-0.6-1.5
				c-0.7-1.3-1.3-2.6-2-3.9c-0.1,0.2-0.2,0.3-0.3,0.5c0.1-0.1,0.2-0.3,0.3-0.5c-1.6-4-3.1-7.9-4.7-11.9l0,0c-0.9-4-1.7-8-2.6-12
				c-2-15.3,0.7-29.9,7.5-44.4c-11.4,6.1-23.1,25.8-23.7,38.5c-0.5,10.6,0.4,20.8,4.6,30.6c1.7,3.8,3.5,7.5,5.2,11.3
				c1.2,3,2.4,5.9,3.6,8.9c0.8,0.3,1.6,0.6,2.4,0.9c-0.8-0.3-1.6-0.6-2.4-0.9c-1.5,2.8-2.9,5.5-4.4,8.3c-1.1,2.2-2.2,4.4-3.3,6.5
				c-8.7,16.7-17.5,33.3-26,50c-2.5,5-4.4,10.2-6.6,15.4l0,0c-0.4,1.3-0.9,2.6-1.3,3.9c-0.5,1.2-1,2.4-1.6,3.5
				c-1.9,3.7-0.5,7.5-0.6,11.3c0.2,2,0.2,4,0.7,5.8c0.3,1,1.5,1.7,2.2,2.6c1.5-3,3-6,4.5-9c0,0,0,0,0,0c0.5-1,1.1-2,1.6-3
				c2-3.8,3.9-7.5,5.9-11.3c0.5-1.2,1-2.4,1.5-3.7h0c0.3-0.3,0.7-0.5,1-0.8C151.6,374.9,157.5,364.3,163.1,353.6z M165.7,286.4
				c-0.1-0.2-0.2-0.4-0.3-0.6C165.6,286,165.7,286.2,165.7,286.4L165.7,286.4z M132.1,386.2c0.4,0.2,0.9,0.5,1.4,0.8
				C133,386.8,132.5,386.5,132.1,386.2z"/>
			
				<radialGradient id="SVGID_00000023974472328998188320000015568375729549976735_" cx="365.0645" cy="480.7573" r="28.7988" gradientTransform="matrix(1 0 0 -1 0 842.11)" gradientUnits="userSpaceOnUse">
				<stop  offset="0" style="stop-color:#69ADDA"/>
				<stop  offset="0.2592" style="stop-color:#66AAD7"/>
				<stop  offset="0.4515" style="stop-color:#61A2CD"/>
				<stop  offset="0.6222" style="stop-color:#5593BC"/>
				<stop  offset="0.7804" style="stop-color:#497FA5"/>
				<stop  offset="0.9286" style="stop-color:#3B698B"/>
				<stop  offset="1" style="stop-color:#355C7D"/>
			</radialGradient>
			<path style="fill:url(#SVGID_00000023974472328998188320000015568375729549976735_);" d="M361.8,396.9c0.6-0.5,1-0.7,1.2-1
				c1.5-2.5,2.8-5,4.3-7.4l0,0c0.7-1.5,1.4-3,2.2-4.5c-0.2,0-0.4,0-0.6,0c0.2,0,0.4,0,0.6,0c3.4-6.9,6.8-13.8,10.1-20.7
				c0.7-1.8,1.5-3.5,2.2-5.2c3.2-5.1,5.4-10.2-0.2-15.2c-2.8-5.6-5.5-11.3-8.5-16.8c-0.2-0.3-2.6-0.2-2.9,0.3
				c-2.1,4.2-3.9,8.5-5.8,12.8c-5.4,9.7-10.7,19.5-16.1,29.1c-4.3,7.5-4.4,7.5,0.9,14C353.3,387.2,357.6,392,361.8,396.9z"/>
			
				<radialGradient id="SVGID_00000051370830387882719120000011014874216051727016_" cx="433.765" cy="509.2249" r="62.8823" gradientTransform="matrix(1 0 0 -1 0 842.11)" gradientUnits="userSpaceOnUse">
				<stop  offset="0" style="stop-color:#69ADDA"/>
				<stop  offset="0.2592" style="stop-color:#66AAD7"/>
				<stop  offset="0.4515" style="stop-color:#61A2CD"/>
				<stop  offset="0.6222" style="stop-color:#5593BC"/>
				<stop  offset="0.7804" style="stop-color:#497FA5"/>
				<stop  offset="0.9286" style="stop-color:#3B698B"/>
				<stop  offset="1" style="stop-color:#355C7D"/>
			</radialGradient>
			<path style="fill:url(#SVGID_00000051370830387882719120000011014874216051727016_);" d="M472.8,398.3c-0.7-3.2-1.4-6.5-2.1-9.7
				c-1-2.7-2-5.5-3-8.2c-2.2-5.3-4-10.9-6.6-16c-5.7-11.1-12-21.8-17.9-32.8c-8.6-16.2-17.1-32.4-25.6-48.6c-2-3.5-4-7-6-10.5
				c-1.7-3-3.4-6-5.2-9.1c-1.9-3.4-3.7-6.8-5.6-10.2c-0.4,0.1-0.8,0.2-1.1,0.3c-1.8,5.5-3.6,10.9-5.4,16.4c1.5,2.2,3,4.5,4.5,6.8
				c1.5,2.7,3,5.4,4.4,8.1c2.8,4.9,5.6,9.8,8.3,14.7c0,0.2,0.1,0.5,0.2,0.8c0.2,0.2,0.4,0.4,0.6,0.6c0.1,0,1.6,2.9,1.5,3
				c1.2,2.4,2.3,4.8,3.6,7.1c5.2,9.9,10.4,19.7,15.6,29.6c7,13.2,14,26.5,21,39.7c3.6,7,7.1,14,10.7,21.1c2,3.7,4,7.5,6,11.2
				C474.6,408.3,472.9,403.2,472.8,398.3z M456.6,381.6c0.3,0.6,0.4,1.4,0.6,2C456.9,383,456.8,382.3,456.6,381.6z"/>
			
				<radialGradient id="SVGID_00000165939773437389765980000001460253296118436259_" cx="392.1057" cy="407.9576" r="40.3312" gradientTransform="matrix(1 0 0 -1 0 842.11)" gradientUnits="userSpaceOnUse">
				<stop  offset="0" style="stop-color:#69ADDA"/>
				<stop  offset="0.2592" style="stop-color:#66AAD7"/>
				<stop  offset="0.4515" style="stop-color:#61A2CD"/>
				<stop  offset="0.6222" style="stop-color:#5593BC"/>
				<stop  offset="0.7804" style="stop-color:#497FA5"/>
				<stop  offset="0.9286" style="stop-color:#3B698B"/>
				<stop  offset="1" style="stop-color:#355C7D"/>
			</radialGradient>
			<path style="fill:url(#SVGID_00000165939773437389765980000001460253296118436259_);" d="M371.9,416.2c0,0-1-0.7-1.5-1.1
				c-0.7-0.4-1.4-0.9-2-1.3c-2.6-1.4-5.1-2.9-7.7-4.3c-5.5-3.7-11.7-3.8-18-3.8c5.8,5.3,11.5,10.6,17.3,16l0.2,0.2l0.3-0.1
				c0.8,0.9,1.7,1.8,2.5,2.7c4.9,4.1,9.8,8.2,14.7,12.3l0.1,0c2.2,2,4.3,4.2,6.7,6c1.9,1.5,4.2,2.7,6.3,4c0.2,0.1,0.5,0.1,0.7,0.1
				c4.1,3.5,8.1,7,12.2,10.5c2.2,1.5,4.3,3,6.5,4.6c0,0,0,0,0,0c0.1-0.1,0.2-0.1,0.4-0.2c6.6,0.2,13.2,0.5,19.8,0.7
				c0.5-0.2,1.1-0.5,1.6-0.8c1.5-0.7,3-1.4,4.6-2.1c4.6-2.5,6.4-7.7,4.3-12.8c-0.2-0.8-0.4-1.5-0.6-2.3c-1-0.2-2-0.4-3-0.5
				c-2,0.7-4,1.4-6,2.1c0.1,1.1,0.1,1.1,0,0c-2,0.1-4,0.2-5.9,0.3c0.2,0.4,0.5,0.7,0.7,1.1c-0.2-0.4-0.4-0.7-0.7-1.1
				c-1.6-0.2-3.2-0.4-4.8-0.7c-8.6-1.6-15.6-6.4-22.6-11.3C389.1,428.5,380.5,422.3,371.9,416.2 M373.4,430.5
				c-0.2-0.4-0.5-0.8-0.7-1.2C372.9,429.7,373.1,430.1,373.4,430.5L373.4,430.5z M386.2,440.9c-0.3-0.5-0.5-1-0.8-1.4
				c0.1-0.8,0-1.5-0.2-2.1c0.2,0.6,0.3,1.3,0.2,2.1C385.6,440,385.9,440.4,386.2,440.9L386.2,440.9c0.5,0.4,0.9,1,1.5,1.3
				C387.1,441.9,386.6,441.3,386.2,440.9z M422.9,448.3c-0.1,0-0.2-0.1-0.3-0.1c0-0.1,0.1-0.2,0.1-0.2c0.1,0,0.2,0.1,0.3,0.1
				C423,448.1,423,448.3,422.9,448.3z"/>
			
				<radialGradient id="SVGID_00000002346032993999118210000000463566645637518727_" cx="438.585" cy="399.18" r="1.6285" gradientTransform="matrix(1 0 0 -1 0 842.11)" gradientUnits="userSpaceOnUse">
				<stop  offset="0" style="stop-color:#69ADDA"/>
				<stop  offset="0.2592" style="stop-color:#66AAD7"/>
				<stop  offset="0.4515" style="stop-color:#61A2CD"/>
				<stop  offset="0.6222" style="stop-color:#5593BC"/>
				<stop  offset="0.7804" style="stop-color:#497FA5"/>
				<stop  offset="0.9286" style="stop-color:#3B698B"/>
				<stop  offset="1" style="stop-color:#355C7D"/>
			</radialGradient>
			<path style="fill:url(#SVGID_00000002346032993999118210000000463566645637518727_);" d="M437.1,444.1c1,0.2,2,0.4,3,0.5
				c-0.2-0.9-0.3-1.7-0.6-3.5C438.3,442.6,437.7,443.4,437.1,444.1z"/>
			
				<radialGradient id="SVGID_00000150786735002837865670000008353195036023462834_" cx="239.6082" cy="339.1995" r="37.1898" gradientTransform="matrix(1 0 0 -1 0 842.11)" gradientUnits="userSpaceOnUse">
				<stop  offset="0" style="stop-color:#69ADDA"/>
				<stop  offset="0.2592" style="stop-color:#66AAD7"/>
				<stop  offset="0.4515" style="stop-color:#61A2CD"/>
				<stop  offset="0.6222" style="stop-color:#5593BC"/>
				<stop  offset="0.7804" style="stop-color:#497FA5"/>
				<stop  offset="0.9286" style="stop-color:#3B698B"/>
				<stop  offset="1" style="stop-color:#355C7D"/>
			</radialGradient>
			<path style="fill:url(#SVGID_00000150786735002837865670000008353195036023462834_);" d="M273.4,505c0.2,0.2,0.4,0.3,0.6,0.5
				c1.2-1.2,2.4-2.5,3.5-3.8v0c0.1-0.3,0.2-0.6,0.2-1c0.1,0.3,0.3,0.6,0.4,0.9c1.4-1.6,2.9-3.1,4.3-4.7c2.9-2.1,3.4-4.3,1.2-6.6
				c-3.6-3.9-7.1-7.8-10.9-11.5c-3.6-3.5-4.8-3.1-7.4,1.7c-2,1.9-4,3.8-6,5.8c-1.3,1.3-2.6,2.7-3.9,4.1c-5.4,4-10.9,8-16.3,11.9
				c-0.3,0.2-0.6,0.4-0.9,0.6c-1,0.6-1.9,1.2-2.9,1.8c-4.5,2.5-9,5-13.5,7.5c0.2,0.2,0.5,0.4,0.7,0.6c-0.3-0.2-0.5-0.4-0.7-0.6
				c-2.2,0.8-4.4,1.5-6.7,2.3c-1,0-2,0-2.9,0c-2.2,0.5-4.5,1-6.8,1.5c-3.6,0.4-7.3,0.8-11.5,1.2c2.6,4.2,5.8,6.1,9.4,7.3
				c4.7,1.2,9.4,2.4,14.1,3.6c2.7,0.4,5.4,0.7,8.2,1.1c6.1-1,12.6-1.1,18.2-3.3c6.6-2.5,12.7-6.6,18.5-10.6
				c4.2-2.8,7.7-6.5,11.5-9.9C273.8,505.3,273.6,505.2,273.4,505z M258,490.5L258,490.5c0.3,0.5,0.6,0.9,1,1.4
				C258.6,491.4,258.3,490.9,258,490.5z"/>
			
				<radialGradient id="SVGID_00000041289205391473078710000004026584410707459497_" cx="297.33" cy="314.645" r="26.7618" gradientTransform="matrix(1 0 0 -1 0 842.11)" gradientUnits="userSpaceOnUse">
				<stop  offset="0" style="stop-color:#69ADDA"/>
				<stop  offset="0.2592" style="stop-color:#66AAD7"/>
				<stop  offset="0.4515" style="stop-color:#61A2CD"/>
				<stop  offset="0.6222" style="stop-color:#5593BC"/>
				<stop  offset="0.7804" style="stop-color:#497FA5"/>
				<stop  offset="0.9286" style="stop-color:#3B698B"/>
				<stop  offset="1" style="stop-color:#355C7D"/>
			</radialGradient>
			<path style="fill:url(#SVGID_00000041289205391473078710000004026584410707459497_);" d="M315.7,527.9c-4.3-4.4-8.6-8.8-13-13.3
				c-1.3-1.6-2.7-3.3-4.4-5.4c-1.8,2.5-3,4.2-4.3,6c-5,4.7-10,9.5-15,14.2c0,0.1,0,0.2,0,0.3c0-0.1,0-0.2,0-0.3
				c-4.6,2.3-9.2,4.7-14.8,7.5c4.5,2,8.1,3.6,11.8,5.2c3.3,0.9,6.5,1.9,9.8,2.8c0.5,0.1,1,0.1,1.4,0.2c0.5,0.2,1,0.4,1.5,0.6
				c7.7-0.5,15.5-0.9,23.2-1.3c3.5-1.2,7-2.5,10.5-3.8c2.6-1.2,5.1-2.4,8.1-3.7c-3.9-2.3-6.9-4.1-9.9-5.9
				C318.9,530,317.3,528.9,315.7,527.9z"/>
			
				<radialGradient id="SVGID_00000075123079581973003780000004933421590554684340_" cx="343.7203" cy="356.9091" r="52.3416" gradientTransform="matrix(1 0 0 -1 0 842.11)" gradientUnits="userSpaceOnUse">
				<stop  offset="0" style="stop-color:#69ADDA"/>
				<stop  offset="0.2592" style="stop-color:#66AAD7"/>
				<stop  offset="0.4515" style="stop-color:#61A2CD"/>
				<stop  offset="0.6222" style="stop-color:#5593BC"/>
				<stop  offset="0.7804" style="stop-color:#497FA5"/>
				<stop  offset="0.9286" style="stop-color:#3B698B"/>
				<stop  offset="1" style="stop-color:#355C7D"/>
			</radialGradient>
			<path style="fill:url(#SVGID_00000075123079581973003780000004933421590554684340_);" d="M393.5,516.7c-1.5-0.3-2.9-0.6-4.4-1
				c-1.3-0.2-2.6-0.4-3.9-0.6c-1,0.2-2,0.5-2.9,0.7l0,0c1-0.2,2-0.5,2.9-0.7c-3-1-6-2-8.9-3.1c-12-5.4-22.6-13-32.4-21.8
				c-1-0.9-1.8-2-2.8-3l0,0c-0.7-0.7-1.5-1.5-2.2-2.2c-9.9-9.3-18.9-19.4-27.7-29.7c-1.3-1.5-3-2.7-4.6-4.1c0,0,0,0,0,0.1
				c-0.3-0.4-0.5-0.8-0.8-1.2c-0.7-1.1-1.5-2.2-2.2-3.4l0,0c-0.7-0.8-1.5-1.7-2.2-2.5c-1.1-1.1-1.8-4.2-4-1.6
				c-4.5,5.4-8.7,11.1-13,16.7c-1.2,1.6-1.1,2.7,0.9,3.3c0.7,1,1.4,2,2.1,2.9c0.6,0,1.2,0,1.9-0.1l0,0c-0.6,0-1.2,0-1.9,0.1
				c1.7,2.1,3.4,4.2,5.2,6.3c6.5,7.4,12.9,14.8,19.4,22.1c8.5,9.5,17.4,18.9,28.3,25.7c10,6.2,20.8,9.8,32.8,8.4
				c1.3-1.1,2.6-2.3,3.9-3.4c-1.2-1.4-1.8-2.5-1.5-3.8c0.1-0.4,0.3-0.9,0.6-1.4c-0.3,0.5-0.5,1-0.6,1.4c-0.3,1.3,0.2,2.3,1.5,3.8
				c-1.3,1.1-2.6,2.3-3.9,3.4c6.7,0.3,12.9-1.4,18.7-4.5c3.9-2,7.8-4.1,11.8-6.1c-0.2-0.3-0.3-0.7-0.5-1
				C400,516.7,396.8,516.7,393.5,516.7z M289.6,465.8c0.1,0,0.1,0,0.1,0C289.7,465.8,289.6,465.8,289.6,465.8z"/>
			
				<radialGradient id="SVGID_00000163793214923091521290000003391564587332906148_" cx="211.579" cy="440.132" r="56.6969" gradientTransform="matrix(1 0 0 -1 0 842.11)" gradientUnits="userSpaceOnUse">
				<stop  offset="0" style="stop-color:#69ADDA"/>
				<stop  offset="0.2592" style="stop-color:#66AAD7"/>
				<stop  offset="0.4515" style="stop-color:#61A2CD"/>
				<stop  offset="0.6222" style="stop-color:#5593BC"/>
				<stop  offset="0.7804" style="stop-color:#497FA5"/>
				<stop  offset="0.9286" style="stop-color:#3B698B"/>
				<stop  offset="1" style="stop-color:#355C7D"/>
			</radialGradient>
			<path style="fill:url(#SVGID_00000163793214923091521290000003391564587332906148_);" d="M208.6,449.4c1.3-1,2.5-2.1,3.8-3.1
				c0,0,0,0,0,0c0,0,0,0,0,0.1l0,0l0,0l0,0c2.6-2.2,5.1-4.4,7.6-6.7l0,0c4.5-4,8.9-8,13.4-11.9l0.3,0.1l0.2-0.2
				c9.8-9.8,19.5-19.5,29.3-29.3c-4-5.6-7.9-11.1-11.9-16.7c-6.5-8.5-13-17.1-19.5-25.6c-3.3-4.8-6.5-9.6-9.9-14.3
				c-1.1-1.5-2.6-1.7-3.6,0.2c-2.4,4.8-4.6,9.6-6.8,14.4c-1.4,4.7,1.7,7.8,4,11.2c0.4,0,0.8,0,1.2,0c-0.4,0-0.8,0-1.2,0
				c0.4,0.5,0.8,1,1.1,1.5c0,0-0.1,0-0.1,0c5,8.7,10.1,17.5,15.1,26.2c1.2,2,2.5,4,3.8,6c1.2,2.2,2.5,4.5,3.8,6.7
				c-4.7,3.5-9.2,6.9-13.7,10.2c0.2,0.1,0.5,0.2,0.7,0.3c-0.2-0.1-0.5-0.2-0.7-0.3c-4.9,3.8-9.9,7.5-14.9,11.3
				c-3.2,2.3-6.5,4.6-9.8,6.9c-9.2,6.2-18.9,11.1-30.5,9.9c-2.2-1-4.5-1.9-6.7-2.9c-0.5-0.5-1-1.1-1.8-2c-1.4,4.2-2.8,7.7-1.1,11.6
				c1,1.9,1.7,4.2,3.2,5.7c4.9,4.7,11.1,4.9,17.5,4.4c2.3-0.3,4.5-0.7,6.8-1c1.1-0.1,2.2,0.1,3.3,0.1c0.4-0.3,0.9-0.6,1.4-0.9
				c0.3-0.3,0.6-0.6,0.9-0.8C198.7,456.8,203.6,453.1,208.6,449.4C208.6,449.4,208.6,449.4,208.6,449.4z M170.4,447
				c-0.8,1-1.5,1.9-2.3,2.9C168.9,449,169.7,448,170.4,447c0-0.1,0-0.2,0-0.3C170.5,446.8,170.5,446.9,170.4,447z M171,449
				c0,0-0.1-0.1-0.1-0.2c0.1,0,0.2,0.1,0.4,0.1C171.2,449,171.1,449,171,449z"/>
		</g>
	</g>
</g>
</svg>
